<?xml version="1.0" encoding="UTF-8" standalone="no"?>
<!DOCTYPE svg PUBLIC "-//W3C//DTD SVG 1.1//EN"
 "http://www.w3.org/Graphics/SVG/1.1/DTD/svg11.dtd">
<!-- Generated by graphviz version 2.47.1 (0)
 -->
<!-- Pages: 1 -->
<svg width="421pt" height="121pt"
 viewBox="0.00 0.00 420.57 121.00" xmlns="http://www.w3.org/2000/svg" xmlns:xlink="http://www.w3.org/1999/xlink">
<g id="graph0" class="graph" transform="scale(1 1) rotate(0) translate(4 117)">
<polygon fill="white" stroke="transparent" points="-4,4 -4,-117 416.57,-117 416.57,4 -4,4"/>
<!-- cloudisa -->
<g id="node1" class="node">
<title>cloudisa</title>
<ellipse fill="none" stroke="black" cx="372.27" cy="-95" rx="40.09" ry="18"/>
<text text-anchor="middle" x="372.27" y="-91.3" font-family="Times,serif" font-size="14.00">cloudisa</text>
</g>
<!-- valenciana_de_cloud -->
<g id="node2" class="node">
<title>valenciana_de_cloud</title>
<ellipse fill="none" stroke="black" cx="210.83" cy="-72" rx="85.29" ry="18"/>
<text text-anchor="middle" x="210.83" y="-68.3" font-family="Times,serif" font-size="14.00">valenciana_de_cloud</text>
</g>
<!-- valenciana_de_cloud&#45;&gt;cloudisa -->
<g id="edge5" class="edge">
<title>valenciana_de_cloud&#45;&gt;cloudisa</title>
<path fill="none" stroke="black" d="M281.77,-82.09C295.9,-84.13 310.44,-86.22 323.59,-88.12"/>
<polygon fill="black" stroke="black" points="323.41,-91.63 333.8,-89.59 324.4,-84.7 323.41,-91.63"/>
</g>
<!-- cumulonimbus -->
<g id="node3" class="node">
<title>cumulonimbus</title>
<ellipse fill="none" stroke="black" cx="210.83" cy="-18" rx="63.89" ry="18"/>
<text text-anchor="middle" x="210.83" y="-14.3" font-family="Times,serif" font-size="14.00">cumulonimbus</text>
</g>
<!-- cirrusa -->
<g id="node4" class="node">
<title>cirrusa</title>
<ellipse fill="lightgreen" stroke="black" cx="44.85" cy="-72" rx="36" ry="18"/>
<text text-anchor="middle" x="44.85" y="-68.3" font-family="Times,serif" font-size="14.00">cirrusa</text>
</g>
<!-- cirrusa&#45;&gt;cloudisa -->
<g id="edge4" class="edge">
<title>cirrusa&#45;&gt;cloudisa</title>
<path fill="none" stroke="black" d="M72.63,-83.5C87.87,-89.42 107.5,-96.01 125.69,-99 193.45,-110.15 273.15,-105.69 322.94,-100.84"/>
<polygon fill="black" stroke="black" points="323.51,-104.3 333.1,-99.81 322.8,-97.34 323.51,-104.3"/>
</g>
<!-- cirrusa&#45;&gt;valenciana_de_cloud -->
<g id="edge3" class="edge">
<title>cirrusa&#45;&gt;valenciana_de_cloud</title>
<path fill="none" stroke="black" d="M80.62,-72C91.08,-72 103.1,-72 115.5,-72"/>
<polygon fill="black" stroke="black" points="115.51,-75.5 125.51,-72 115.51,-68.5 115.51,-75.5"/>
</g>
<!-- cirrusa&#45;&gt;cumulonimbus -->
<g id="edge2" class="edge">
<title>cirrusa&#45;&gt;cumulonimbus</title>
<path fill="none" stroke="black" d="M75.01,-62.02C90.12,-56.88 108.88,-50.54 125.69,-45 136.18,-41.54 147.42,-37.9 158.16,-34.44"/>
<polygon fill="black" stroke="black" points="159.4,-37.72 167.85,-31.33 157.26,-31.06 159.4,-37.72"/>
</g>
<!-- strato_cia -->
<g id="node5" class="node">
<title>strato_cia</title>
<ellipse fill="lightgreen" stroke="black" cx="44.85" cy="-18" rx="44.69" ry="18"/>
<text text-anchor="middle" x="44.85" y="-14.3" font-family="Times,serif" font-size="14.00">strato_cia</text>
</g>
<!-- strato_cia&#45;&gt;cumulonimbus -->
<g id="edge1" class="edge">
<title>strato_cia&#45;&gt;cumulonimbus</title>
<path fill="none" stroke="black" d="M89.79,-18C104.19,-18 120.6,-18 136.56,-18"/>
<polygon fill="black" stroke="black" points="136.96,-21.5 146.96,-18 136.96,-14.5 136.96,-21.5"/>
</g>
</g>
</svg>
